<?xml version="1.0" encoding="utf-8"?>
<!-- Generator: Adobe Illustrator 24.3.0, SVG Export Plug-In . SVG Version: 6.00 Build 0)  -->
<svg version="1.1" xmlns="http://www.w3.org/2000/svg" xmlns:xlink="http://www.w3.org/1999/xlink" x="0px" y="0px"
	 viewBox="0 0 400 400" style="enable-background:new 0 0 400 400;" xml:space="preserve">
<style type="text/css">
	.st0{display:none;}
	.st1{display:inline;fill:#AB539B;stroke:#FFFFFF;stroke-width:3;stroke-miterlimit:10;}
	.st2{fill:#002B42;}
	.st3{fill:#FFFFFF;}
	.st4{fill:none;stroke:#FFFFFF;stroke-width:2.0069;stroke-miterlimit:10;}
	.st5{fill:#CDE9EB;}
	.st6{display:inline;fill:#002B42;}
	.st7{clip-path:url(#SVGID_2_);}
	.st8{clip-path:url(#SVGID_4_);fill:#002B42;}
	.st9{clip-path:url(#SVGID_4_);}
	.st10{display:none;fill:none;stroke:#FFFFFF;stroke-width:3;stroke-miterlimit:10;}
	.st11{display:none;fill:#FFFFFF;}
	.st12{fill:none;stroke:#002B42;stroke-width:2.0069;stroke-miterlimit:10;}
	.st13{clip-path:url(#SVGID_4_);fill:#FFFFFF;}
	.st14{clip-path:url(#SVGID_4_);fill:#FFFFFF;stroke:#FFFFFF;stroke-width:3;stroke-miterlimit:10;}
	.st15{fill:#FFFFFF;stroke:#FFFFFF;stroke-width:0.9676;stroke-miterlimit:10;}
</style>
<g id="图层_9" class="st0">
	<rect x="17.5" y="28.5" class="st1" width="324" height="390"/>
</g>
<g id="菌">
	<path class="st2" d="M107.3,272.5l23.2-20c4.1-3.5,10.9-3.1,15,1.1l0,0c4.1,4.1,4.2,10.4,0.1,14l-23.2,20c-4.1,3.5-10.9,3.1-15-1.1
		h0C103.2,282.3,103.2,276,107.3,272.5z"/>
	<g>
		<path class="st2" d="M148,261.4c0.1,0.2,0.4,0.5,0.7,0.6c0.3,0.2,0.6,0.3,0.9,0.4c0.7,0.1,1.5-0.1,2.2-0.5
			c0.3-0.2,0.8-0.5,1.2-0.7c0.4-0.2,0.9-0.4,1.3-0.5c0.5-0.1,1-0.1,1.4,0.1c0.4,0.2,0.8,0.6,0.9,1c-0.2-0.4-0.6-0.7-1-0.7
			c-0.4-0.1-0.8,0-1.2,0.1c-0.4,0.1-0.7,0.4-1.1,0.6c-0.3,0.3-0.6,0.5-1,0.9c-0.7,0.6-1.7,1.1-2.8,1.1c-0.5,0-1.1-0.1-1.6-0.3
			c-0.5-0.2-1-0.5-1.5-1L148,261.4z"/>
	</g>
	<g>
		<path class="st2" d="M145.1,253.4c0.1,0.1,0.4,0.3,0.6,0.3c0.2,0.1,0.5,0.1,0.7,0.1c0.5,0,1-0.4,1.3-0.9c0.4-0.5,0.8-1.3,1.5-1.7
			c0.3-0.2,0.7-0.3,1.1-0.3c0.4,0.1,0.7,0.3,0.9,0.5c-0.3-0.2-0.6-0.3-1-0.3c-0.3,0-0.6,0.2-0.8,0.4c-0.2,0.2-0.4,0.5-0.5,0.8
			c-0.1,0.3-0.2,0.6-0.4,1c-0.3,0.7-0.8,1.5-1.7,1.8c-0.4,0.2-0.9,0.3-1.4,0.2c-0.5,0-0.9-0.1-1.4-0.3L145.1,253.4z"/>
	</g>
	<g>
		<path class="st2" d="M129.8,253.5c0,0,0.1-0.2,0.1-0.4c0-0.2,0-0.4-0.1-0.6c-0.1-0.4-0.3-0.8-0.5-1.2c-0.2-0.4-0.5-0.8-0.9-1.1
			c-0.3-0.4-0.7-0.7-1.1-1c0.5,0.2,0.9,0.4,1.4,0.6c0.4,0.3,0.9,0.5,1.3,0.9c0.4,0.3,0.8,0.8,1.1,1.3c0.1,0.3,0.3,0.5,0.4,0.8
			c0.1,0.3,0.2,0.6,0.2,1.1L129.8,253.5z"/>
	</g>
	<g>
		<path class="st2" d="M144.3,267.3c0,0.5,0,1,0.1,1.5c0.1,0.5,0.2,1,0.4,1.5c0.3,0.9,0.9,1.9,2,2.2c-0.5,0-1.1-0.1-1.6-0.5
			c-0.5-0.3-0.9-0.8-1.2-1.2c-0.3-0.5-0.6-1-0.9-1.5c-0.3-0.5-0.5-1-0.7-1.6L144.3,267.3z"/>
	</g>
	<g>
		<path class="st2" d="M139.7,245.1c-0.3,0.2-0.4,0.5-0.3,0.8c0.1,0.3,0.2,0.5,0.4,0.8c0.3,0.5,0.7,1.3,0.5,2.1
			c-0.1,0.4-0.3,0.7-0.5,1c-0.2,0.3-0.4,0.6-0.7,0.9c-0.2,0.3-0.5,0.5-0.6,0.7c-0.1,0.2-0.2,0.3-0.2,0.5l-1.8-0.8
			c0.2-0.4,0.6-0.8,0.9-1c0.3-0.2,0.6-0.4,0.9-0.5c0.2-0.1,0.5-0.3,0.7-0.5c0.2-0.2,0.4-0.4,0.5-0.6c0.3-0.4,0.2-0.9,0-1.5
			c-0.1-0.3-0.2-0.6-0.2-1C139.2,245.5,139.4,245.2,139.7,245.1z"/>
	</g>
	<g>
		<path class="st2" d="M105.7,275.6c-0.1-0.2-0.4-0.5-0.7-0.6c-0.3-0.2-0.6-0.3-0.9-0.3c-0.7-0.1-1.5,0.1-2.2,0.5
			c-0.3,0.2-0.7,0.5-1.2,0.7c-0.4,0.2-0.8,0.4-1.3,0.5c-0.5,0.1-1,0.1-1.4-0.1c-0.4-0.2-0.8-0.5-1-0.9c0.3,0.4,0.6,0.6,1,0.7
			c0.4,0.1,0.8,0,1.2-0.2c0.4-0.2,0.7-0.4,1.1-0.7c0.3-0.3,0.6-0.6,1-0.9c0.7-0.6,1.6-1.2,2.8-1.2c0.5,0,1.1,0,1.6,0.2
			c0.5,0.2,1,0.4,1.5,0.9L105.7,275.6z"/>
	</g>
	<g>
		<path class="st2" d="M113.8,267.4c0.1-0.3,0.2-0.8,0.2-1.2c0-0.4-0.1-0.8-0.2-1.2c-0.2-0.4-0.5-0.7-0.9-0.9
			c-0.4-0.2-0.9-0.3-1.4-0.4c0.5-0.1,1-0.2,1.6,0c0.5,0.1,1.1,0.4,1.5,0.8c0.4,0.4,0.7,1,0.9,1.5c0.2,0.6,0.3,1.1,0.3,1.8
			L113.8,267.4z"/>
	</g>
	<g>
		<path class="st2" d="M126.6,283.6c0,0-0.2,0.2-0.2,0.3c-0.1,0.2-0.1,0.3-0.2,0.5c-0.1,0.4-0.1,0.8-0.1,1.2c0,0.8,0.3,1.7,0.7,2.4
			c0.2,0.3,0.5,0.6,0.9,0.9c0.4,0.3,0.8,0.5,1.2,0.9c0.4,0.4,0.6,0.9,0.5,1.4c0,0.5-0.2,1-0.3,1.4c0.1-0.9,0.2-2-0.5-2.5
			c-0.7-0.4-1.8-0.7-2.5-1.6c-0.4-0.4-0.7-0.9-0.9-1.3c-0.2-0.5-0.4-0.9-0.5-1.5c-0.1-0.5-0.2-1.1-0.1-1.7c0-0.3,0.1-0.6,0.2-0.9
			c0.1-0.3,0.2-0.5,0.4-0.9L126.6,283.6z"/>
	</g>
	<g>
		<path class="st2" d="M131.9,276.6c0.6-0.1,1.1,0,1.6,0.1c0.5,0.1,0.9,0.3,1.3,0.6c0.8,0.6,1.3,1.3,1.7,2.1
			c0.4,0.8,0.5,1.6,0.8,2.2c0.1,0.3,0.3,0.7,0.6,0.9c0.1,0.1,0.3,0.2,0.5,0.2c0.2,0,0.3-0.2,0.4-0.4c-0.1,0.2-0.2,0.4-0.4,0.5
			c-0.2,0.1-0.5,0-0.6-0.1c-0.4-0.2-0.6-0.6-0.9-0.9c-0.5-0.7-0.8-1.4-1.2-2c-0.4-0.6-1-1-1.5-1.3c-0.3-0.1-0.6-0.2-0.9-0.2
			c-0.3,0-0.6,0-0.8,0.1L131.9,276.6z"/>
	</g>
	<g>
		<path class="st2" d="M122.1,261.3c0.2-0.5,0.3-1.2,0.2-1.8c-0.1-0.6-0.4-1-1-1.4l-1-0.6c-0.3-0.2-0.7-0.5-0.9-0.9
			c-0.3-0.8-0.3-1.6-0.3-2.3c0.2,0.7,0.3,1.5,0.7,2.1c0.4,0.5,1.2,0.6,1.9,0.9c0.3,0.1,0.8,0.3,1.2,0.6c0.4,0.3,0.6,0.8,0.8,1.2
			c0.4,0.9,0.4,1.8,0.3,2.7L122.1,261.3z"/>
	</g>
	<g>
		<path class="st2" d="M106.4,285.2c-0.1-0.1-0.5-0.1-0.7-0.1c-0.2,0-0.5,0.1-0.7,0.2c-0.4,0.2-0.8,0.7-1,1.3
			c-0.1,0.3-0.2,0.7-0.3,1c-0.1,0.4-0.3,0.7-0.5,1c-0.2,0.3-0.6,0.6-1,0.6c-0.4,0.1-0.8,0-1.1-0.1c0.3,0.1,0.7,0,1-0.1
			c0.3-0.1,0.5-0.4,0.6-0.7c0.1-0.3,0.2-0.6,0.2-0.9c0-0.3,0-0.6,0.1-1.1c0.1-0.8,0.4-1.6,1.1-2.3c0.3-0.3,0.8-0.6,1.2-0.7
			c0.5-0.1,0.8-0.2,1.4-0.2L106.4,285.2z"/>
	</g>
	<g>
		<path class="st2" d="M114.4,289.2c0,0-0.2,0.2-0.2,0.4c-0.1,0.2-0.1,0.4-0.1,0.6c-0.1,0.4,0,0.8,0.1,1.3c0.1,0.4,0.3,0.9,0.5,1.3
			c0.2,0.4,0.5,0.8,0.7,1.3c-0.4-0.3-0.8-0.6-1.1-1c-0.3-0.4-0.7-0.8-1-1.2c-0.3-0.5-0.5-1-0.7-1.5c-0.1-0.3-0.1-0.6-0.1-0.9
			c0-0.3,0-0.6,0.2-1.1L114.4,289.2z"/>
	</g>
	<g>
		<path class="st3" d="M140.1,262c-0.3,0.5-0.7,0.9-1.2,1.3c-0.5,0.3-1.1,0.6-1.6,0.7c-0.6,0.2-1.2,0.2-1.7,0.3
			c-0.6,0-1.1,0-1.8-0.1L133,264l-0.1-0.7c-0.1-0.6-0.1-1.1,0-1.7c0.1-0.6,0.2-1.1,0.4-1.6c0.2-0.5,0.5-1,0.9-1.5
			c0.4-0.4,0.8-0.8,1.4-1c-0.2,0.5-0.4,1-0.5,1.4c-0.1,0.5-0.2,0.9-0.2,1.4c0,0.5,0,0.9,0,1.4c0,0.5,0,1,0.1,1.3l-0.8-0.8
			c0.4,0.1,1,0.1,1.5,0.2c0.5,0,1,0.1,1.5,0.1c0.5,0,1,0,1.5-0.1C139,262.3,139.5,262.2,140.1,262z"/>
	</g>
	<path class="st4" d="M132.6,268.9c-2.2,1.9-6.2,1.1-6.2,1.1s-0.5-3.8,1.6-5.7c2.2-1.9,6.2-1.1,6.2-1.1S134.7,267,132.6,268.9z"/>
	<path class="st4" d="M124.3,275.5c-2.2,1.9-6.2,1.1-6.2,1.1s-0.5-3.8,1.6-5.7c2.2-1.9,6.2-1.1,6.2-1.1S126.5,273.6,124.3,275.5z"/>
	<g>
		<path class="st3" d="M111.9,278c0.3-0.5,0.7-0.9,1.2-1.3c0.5-0.3,1.1-0.6,1.6-0.7c0.6-0.2,1.2-0.2,1.7-0.3c0.6,0,1.1,0,1.8,0.1
			l0.7,0.1l0.1,0.7c0.1,0.6,0.1,1.1,0,1.7c-0.1,0.6-0.2,1.1-0.4,1.6c-0.2,0.5-0.5,1-0.9,1.5c-0.4,0.4-0.8,0.8-1.4,1
			c0.2-0.5,0.4-1,0.5-1.4c0.1-0.5,0.2-0.9,0.2-1.4c0-0.5,0-0.9,0-1.4c0-0.5,0-1-0.1-1.3l0.8,0.8c-0.4-0.1-1-0.1-1.5-0.2
			c-0.5,0-1-0.1-1.5-0.1c-0.5,0-1,0-1.5,0.1C112.9,277.7,112.4,277.8,111.9,278z"/>
	</g>
</g>
<g id="图层_1">
	<g>
		<path class="st5" d="M129,314c1.8-3.7,4-7.2,6.3-10.6c2.3-3.4,4.8-6.7,7.4-9.8c5.3-6.3,11.1-12.2,17.4-17.5
			c12.6-10.7,27.1-19.2,42.6-25.3c7.7-3.1,15.7-5.5,23.8-7.4c8.1-1.9,16.4-3.2,24.6-4.2c8.2-1,16.5-1.5,24.6-2.3
			c8-0.8,15.7-1.9,22.1-5.2c2.5-1.3,5.5-0.3,6.7,2.2c1.3,2.5,0.3,5.5-2.2,6.7c-0.1,0-0.2,0.1-0.3,0.1l-0.1,0c-4.2,1.9-8.7,3-13,3.7
			c-4.3,0.7-8.6,0.9-12.7,1.1c-8.3,0.3-16.4,0.4-24.5,0.9c-8.1,0.5-16.1,1.3-24,2.8c-7.9,1.5-15.7,3.5-23.4,6.1
			c-15.3,5.2-29.8,12.8-42.7,22.6c-6.5,4.9-12.5,10.4-18,16.4c-2.8,3-5.4,6.1-7.9,9.4C133.3,307,131,310.4,129,314z"/>
	</g>
	<g class="st0">
		<path class="st6" d="M160.9,296.2c0.5-0.7,0.8-0.9,1.1-1.4l1-1.1c0.6-0.7,1.3-1.4,1.9-2.1c1.3-1.4,2.6-2.7,3.9-3.9
			c2.6-2.5,5.4-4.9,8.1-7.2c5.6-4.6,11.4-8.8,17.5-12.4c12.2-7.4,25.5-12.9,39.2-16c6.9-1.5,13.7-2.5,20.8-2.8
			c3.5-0.1,6.8-0.1,10.1,0c3.3,0.1,6.7,0.1,10,0.3c6.6,0.2,13.2,0.6,19.8,0.7c3.3,0.1,6.5,0,9.8-0.2c3.2-0.3,6.5-0.8,9.3-2.5
			c-2.5,2.2-5.8,3.4-9,4.3c-3.2,0.9-6.5,1.5-9.8,2.1c-6.6,1.1-13.2,1.9-19.7,2.9c-3.3,0.5-6.5,1-9.7,1.5c-3.2,0.5-6.5,1.1-9.5,1.8
			l-4.5,1.1l-4.5,1.4c-1.5,0.5-3,1-4.4,1.5c-1.4,0.6-2.9,1.1-4.3,1.7c-11.4,4.9-21.8,11.6-30.8,19.7c-4.5,4-8.8,8.4-12.6,13
			c-1.9,2.3-3.8,4.7-5.5,7.1c-0.9,1.2-1.7,2.4-2.5,3.6c-0.4,0.6-0.8,1.2-1.1,1.8l-0.5,0.9c-0.1,0.2-0.4,0.6-0.3,0.6
			c-4.5,6.6-13.4,8.3-20,3.8C158.2,311.7,156.5,302.8,160.9,296.2z"/>
	</g>
	<path class="st2" d="M141.3,143.8c0,0,17.4-2,23.8-13.2c6.4-11.2-0.5-27.2-0.5-27.2s-17.4,2-23.8,13.2c-5.2,9.1-2.4,20.2-0.8,24.5
		c0,0,5.5-17.2,14.9-22.7C146.6,127.4,141.6,142.9,141.3,143.8z"/>
	<g id="图层_6">
	</g>
	<path class="st2" d="M130,195.1c0,0-9.7,11.5-19.6,10.2c-9.9-1.3-16.3-14.9-16.3-14.9s9.7-11.5,19.6-10.2
		c8.1,1.1,13.4,9.1,15.3,12.5c0,0-13.1-5.2-21.1-1.3C117.4,190.1,129.3,194.8,130,195.1z"/>
	<g id="茎">
		<defs>
			<rect id="SVGID_1_" x="60.5" y="76.5" width="227.5" height="257"/>
		</defs>
		<clipPath id="SVGID_2_">
			<use xlink:href="#SVGID_1_"  style="overflow:visible;"/>
		</clipPath>
		<g class="st7">
			<path class="st2" d="M159.1,116c0-0.1-0.1,0-0.2,0c-0.1,0-0.1,0.1-0.2,0.1c-0.1,0.1-0.3,0.2-0.4,0.3c-0.2,0.2-0.5,0.5-0.7,0.7
				c-0.5,0.5-0.9,1-1.3,1.5c-0.9,1-1.7,2.1-2.5,3.2c-1.6,2.2-3.1,4.4-4.4,6.7c-2.8,4.6-5.2,9.4-7.1,14.4c-3.9,9.9-6.2,20.5-5.7,31
				c0.2,5.2,1.2,10.4,2.7,15.4c1.6,5,3.8,9.6,6.6,14.1c1.4,2.2,2.8,4.4,4.4,6.5c1.5,2.1,3.2,4.1,5,5.9c3.5,3.7,7.5,6.9,11.9,9
				c4.4,2.1,9.2,3.2,14.2,3.5c5,0.3,10.1-0.1,15.3-0.8c5.3-0.6,10.1-1.6,15.1-3c4.9-1.4,9.9-3.3,15-5.1c5.2-1.8,10.6-3.5,16.1-4.8
				c5.6-1.3,11.2-2,16.9-2.3c2.9-0.2,5.6-0.2,8.4-0.3c2.5-0.1,4.9-0.4,7.4-0.8c4.9-0.8,9.5-2.1,13.6-4c4-1.9,8.8-0.1,10.7,3.9
				s0.1,8.8-3.9,10.7c-0.3,0.2-0.7,0.3-1.1,0.4l-0.2,0.1c-6,1.8-12,2.5-17.9,2.7c-2.9,0.1-5.8,0-8.8-0.2c-2.6-0.1-5.2-0.2-7.8-0.1
				c-5.1,0.1-10.2,0.4-15.2,1.3c-5,0.9-10,2.1-15.1,3.6c-5.1,1.5-10.3,3.2-15.8,4.5c-1.4,0.3-2.7,0.7-4.1,0.9
				c-1.4,0.3-2.8,0.5-4.2,0.7c-2.9,0.5-5.6,0.6-8.4,0.8c-5.5,0.3-11.2,0.5-16.9-0.2c-5.7-0.7-11.5-2.4-16.7-5.3
				c-5.2-2.9-9.5-6.8-13.1-11.2c-1.8-2.2-3.5-4.4-5-6.8c-1.5-2.3-2.9-4.7-4.2-7.1c-2.6-4.8-4.9-10-6.3-15.4
				c-1.4-5.4-2.1-10.9-2.1-16.5c0-11.1,2.9-21.9,7.4-31.7c2.3-4.9,4.9-9.7,7.9-14.2c1.5-2.2,3.1-4.4,4.8-6.5
				c0.8-1.1,1.7-2.1,2.6-3.1c0.5-0.5,0.9-1,1.4-1.5c0.2-0.2,0.5-0.5,0.7-0.7c0.1-0.1,0.3-0.2,0.4-0.3c0.1-0.1,0.1-0.1,0.2-0.1
				C158.9,116,159.1,115.9,159.1,116z"/>
		</g>
	</g>
</g>
<g id="图层_4">
	<defs>
		<path id="SVGID_3_" d="M194.4,125.6L129.7,163c-6,3.5-9.7,9.9-9.7,16.8v74.8c0,6.9,3.7,13.3,9.7,16.8l64.8,37.4
			c6,3.5,13.4,3.5,19.4,0l64.8-37.4c6-3.5,9.7-9.9,9.7-16.8v-74.8c0-6.9-3.7-13.3-9.7-16.8l-64.8-37.4
			C207.8,122.1,200.4,122.1,194.4,125.6z"/>
	</defs>
	<clipPath id="SVGID_4_">
		<use xlink:href="#SVGID_3_"  style="overflow:visible;"/>
	</clipPath>
	<path class="st8" d="M118.7,179.5v75.6c0,7,3.7,13.5,9.8,17l65.5,37.8c6.1,3.5,13.5,3.5,19.6,0l65.5-37.8c6.1-3.5,9.8-10,9.8-17
		v-75.6c0-7-3.7-13.5-9.8-17l-65.5-37.8c-6.1-3.5-13.5-3.5-19.6,0l-65.5,37.8C122.4,166,118.7,172.5,118.7,179.5z"/>
	<g class="st9">
		<path class="st5" d="M129,314c1.9-3.8,4.1-7.3,6.5-10.8c2.4-3.5,4.9-6.8,7.6-10c5.4-6.4,11.4-12.4,17.9-17.8
			c13-10.8,27.9-19.4,43.7-25.4c7.9-3,16.1-5.5,24.4-7.3c4.2-0.9,8.3-1.7,12.6-2.3c4.2-0.6,8.4-1.1,12.6-1.6
			c8.4-0.9,16.9-1.4,25-2.2c4-0.5,8-1,11.6-2.1c3.7-1,7-2.5,10.2-4.4c2.3-1.5,5.4-0.8,6.9,1.5s0.8,5.4-1.5,6.9
			c-0.1,0-0.1,0.1-0.2,0.1l-0.1,0c-4.1,2.3-8.6,4-13,4.9c-4.5,1-8.9,1.4-13.1,1.7c-8.6,0.5-16.8,0.5-25.1,1
			c-4.1,0.2-8.3,0.5-12.4,0.9c-4.1,0.4-8.2,1-12.2,1.7c-8.1,1.4-16.1,3.3-24,5.9c-15.7,5.1-30.6,12.7-43.8,22.7
			c-6.6,5-12.8,10.5-18.5,16.6c-2.8,3-5.5,6.2-8.1,9.5C133.4,306.9,131,310.3,129,314z"/>
	</g>
	<g class="st9">
		<path class="st3" d="M164,302.7c0.4-0.6,0.7-0.9,1-1.3l0.9-1.1c0.6-0.7,1.2-1.4,1.8-2c1.2-1.3,2.5-2.6,3.7-3.9
			c2.5-2.5,5.1-4.9,7.8-7.2c5.3-4.6,10.9-8.7,16.8-12.4c11.7-7.5,24.6-13.1,38-16.4c6.7-1.6,13.4-2.7,20.3-3.1
			c6.8-0.3,13.4-0.3,20-0.2c6.6,0.1,13.2,0.3,19.8,0.3c3.3,0,6.5-0.1,9.8-0.5c3.2-0.4,6.5-1,9.3-2.8c-2.6,2.1-5.9,3.2-9.1,4
			c-3.2,0.8-6.5,1.3-9.8,1.7c-6.6,0.9-13.2,1.5-19.7,2.2c-6.5,0.7-13.1,1.6-19.4,2.6c-6.2,1.2-12.4,3-18.2,5.2
			c-11.8,4.5-22.6,11-32.2,19c-4.8,4-9.3,8.3-13.4,12.8c-2.1,2.3-4.1,4.6-5.9,7.1c-0.9,1.2-1.8,2.4-2.7,3.6
			c-0.4,0.6-0.8,1.2-1.3,1.8l-0.6,0.9c-0.2,0.3-0.4,0.6-0.4,0.7c-2.1,5.2-8.1,7.6-13.3,5.5s-7.6-8.1-5.5-13.3
			c0.3-0.8,0.8-1.5,1.2-2.2L164,302.7z"/>
	</g>
	<g class="st9">
		<path class="st3" d="M156.5,116.3c0-0.1-0.2,0-0.2,0c-0.1,0.1-0.1,0.1-0.2,0.2c-0.1,0.1-0.3,0.3-0.4,0.4c-0.2,0.3-0.5,0.5-0.7,0.8
			c-0.5,0.6-0.9,1.1-1.3,1.7c-0.9,1.2-1.7,2.4-2.4,3.6c-1.5,2.4-3,5-4.3,7.5c-2.6,5.1-4.8,10.5-6.5,16c-3.3,11-4.6,22.6-3.1,33.8
			c0.7,5.6,2.2,11.1,4.2,16.3c2,5.3,4.7,10.2,8,14.6c3.3,4.4,7.3,8.4,11.6,11.8c4.4,3.4,9.1,6.1,14.2,8.1c5,1.9,10.3,3.1,15.6,3.2
			c2.6,0.1,5.2-0.1,7.8-0.6c2.6-0.5,4.8-1.1,7.7-2.1l8.2-2.8c2.7-0.9,5.5-1.8,8.3-2.7l4.2-1.4l4.2-1.3c2.8-0.9,5.6-1.7,8.4-2.5
			c11.3-3.2,22.8-6.1,34.8-7.8c6-0.8,12.2-1.3,18.2-1.3c6.1-0.1,12,0.3,17.5,0.3l-0.7,16c-6-0.5-11.7-1.1-17.1-1.4
			c-5.5-0.3-10.9-0.2-16.4,0.2c-11,0.9-22.2,2.9-33.4,5.4c-2.8,0.6-5.6,1.3-8.4,1.9l-4.2,1l-4.2,1.1c-2.8,0.7-5.6,1.4-8.4,2.2
			l-8.4,2.3c-2.6,0.8-6.1,1.6-9.2,1.9c-3.2,0.4-6.4,0.4-9.5,0.2c-6.3-0.5-12.4-2.2-18-4.8c-11.2-5.2-20.6-13.6-27.3-23.6
			c-3.3-5-5.9-10.6-7.8-16.2c-1.9-5.7-3.1-11.5-3.6-17.5c-1-11.8,1-23.7,4.9-34.7c2-5.5,4.5-10.8,7.4-15.8c1.5-2.5,3-5,4.7-7.3
			c0.8-1.2,1.7-2.3,2.6-3.5c0.5-0.6,0.9-1.1,1.4-1.7c0.2-0.3,0.5-0.5,0.8-0.8c0.1-0.1,0.3-0.2,0.4-0.4c0.1-0.1,0.1-0.1,0.2-0.2
			C156.3,116.3,156.4,116.2,156.5,116.3z"/>
	</g>
	<g id="图层_3" class="st9">
	</g>
	<g id="图层_7" class="st9">
		<path class="st10" d="M247.5,116.5c0.5,8.5,3.2,54.1-37,79c-18.8,11.3-30,41-40.7,47.7C153,259,111,278.3,105,292.7"/>
		<path class="st3" d="M175.7,244.7L157.6,259c-3.2,2.5-7.9,2-10.4-1.3h0c-2.5-3.2-2-7.9,1.3-10.4l18.1-14.2c3.2-2.5,7.9-2,10.4,1.3
			h0C179.5,237.5,179,242.2,175.7,244.7z"/>
		<path class="st3" d="M208.5,228.9l-21.2,9c-3.8,1.6-8.2-0.2-9.8-4l0,0c-1.6-3.8,0.2-8.2,4-9.8l21.2-9c3.8-1.6,8.2,0.2,9.8,4l0,0
			C214.1,222.9,212.3,227.3,208.5,228.9z"/>
		<path class="st3" d="M239.5,213.7l-19.3,8.2c-3.3,1.4-7.2-0.2-8.6-3.5h0c-1.4-3.3,0.2-7.2,3.5-8.6l19.3-8.2
			c3.3-1.4,7.2,0.2,8.6,3.5l0,0C244.4,208.4,242.8,212.3,239.5,213.7z"/>
		<path class="st3" d="M263.2,188.7l-12.3,15.2c-2,2.5-5.8,2.9-8.3,0.9l0,0c-2.5-2-2.9-5.8-0.9-8.3l12.3-15.2c2-2.5,5.8-2.9,8.3-0.9
			h0C264.8,182.4,265.2,186.2,263.2,188.7z"/>
		<path class="st11" d="M278.4,156.8l-5.3,16.6c-1,3-4.2,4.7-7.2,3.7l-0.1,0c-3-1-4.7-4.2-3.7-7.2l5.3-16.6c1-3,4.2-4.7,7.2-3.7
			l0.1,0C277.7,150.6,279.4,153.8,278.4,156.8z"/>
		<path class="st3" d="M293,134.2l-8.7,14.9c-1.6,2.7-5.1,3.7-7.9,2.1l0,0c-2.7-1.6-3.7-5.1-2.1-7.9l8.7-14.9
			c1.6-2.7,5.1-3.7,7.9-2.1v0C293.6,127.9,294.6,131.5,293,134.2z"/>
		<path class="st3" d="M308.7,117.2l-11,9.9c-2,1.8-5.2,1.6-7-0.4v0c-1.8-2-1.6-5.2,0.4-7l11-9.9c2-1.8,5.2-1.6,7,0.4v0
			C310.9,112.3,310.7,115.4,308.7,117.2z"/>
		<path class="st3" d="M323.1,100l-8.2,10.2c-1.4,1.7-4,2-5.7,0.6l0,0c-1.7-1.4-2-4-0.6-5.7l8.2-10.2c1.4-1.7,4-2,5.7-0.6h0
			C324.3,95.7,324.5,98.2,323.1,100z"/>
	</g>
	<g id="图层_8" class="st9">
		<path class="st3" d="M107.4,272.6l23.2-20c4.1-3.5,10.9-3.1,15,1.1l0,0c4.1,4.1,4.2,10.4,0.1,14l-23.2,20
			c-4.1,3.5-10.9,3.1-15-1.1l0,0C103.3,282.4,103.3,276.1,107.4,272.6z"/>
		<g>
			<path class="st3" d="M148.1,261.5c0.1,0.2,0.4,0.5,0.7,0.6c0.3,0.2,0.6,0.3,0.9,0.4c0.7,0.1,1.5-0.1,2.2-0.5
				c0.3-0.2,0.8-0.5,1.2-0.7c0.4-0.2,0.9-0.4,1.3-0.5c0.5-0.1,1-0.1,1.4,0.1c0.4,0.2,0.8,0.6,0.9,1c-0.2-0.4-0.6-0.7-1-0.7
				c-0.4-0.1-0.8,0-1.2,0.1c-0.4,0.1-0.7,0.4-1.1,0.6c-0.3,0.3-0.6,0.5-1,0.9c-0.7,0.6-1.7,1.1-2.8,1.1c-0.5,0-1.1-0.1-1.6-0.3
				c-0.5-0.2-1-0.5-1.5-1L148.1,261.5z"/>
		</g>
		<g>
			<path class="st3" d="M145.3,253.4c0.1,0.1,0.4,0.3,0.6,0.3c0.2,0.1,0.5,0.1,0.7,0.1c0.5,0,1-0.4,1.3-0.9c0.4-0.5,0.8-1.3,1.5-1.7
				c0.3-0.2,0.7-0.3,1.1-0.3c0.4,0.1,0.7,0.3,0.9,0.5c-0.3-0.2-0.6-0.3-1-0.3c-0.3,0-0.6,0.2-0.8,0.4c-0.2,0.2-0.4,0.5-0.5,0.8
				c-0.1,0.3-0.2,0.6-0.4,1c-0.3,0.7-0.8,1.5-1.7,1.8c-0.4,0.2-0.9,0.3-1.4,0.2c-0.5,0-0.9-0.1-1.4-0.3L145.3,253.4z"/>
		</g>
		<g>
			<path class="st3" d="M129.9,253.6c0,0,0.1-0.2,0.1-0.4c0-0.2,0-0.4-0.1-0.6c-0.1-0.4-0.3-0.8-0.5-1.2c-0.2-0.4-0.5-0.8-0.9-1.1
				c-0.3-0.4-0.7-0.7-1.1-1c0.5,0.2,0.9,0.4,1.4,0.6c0.4,0.3,0.9,0.5,1.3,0.9c0.4,0.3,0.8,0.8,1.1,1.3c0.1,0.3,0.3,0.5,0.4,0.8
				c0.1,0.3,0.2,0.6,0.2,1.1L129.9,253.6z"/>
		</g>
		<g>
			<path class="st3" d="M144.4,267.4c0,0.5,0,1,0.1,1.5c0.1,0.5,0.2,1,0.4,1.5c0.3,0.9,0.9,1.9,2,2.2c-0.5,0-1.1-0.1-1.6-0.5
				c-0.5-0.3-0.9-0.8-1.2-1.2c-0.3-0.5-0.6-1-0.9-1.5c-0.3-0.5-0.5-1-0.7-1.6L144.4,267.4z"/>
		</g>
		<g>
			<path class="st3" d="M139.9,245.2c-0.3,0.2-0.4,0.5-0.3,0.8c0.1,0.3,0.2,0.5,0.4,0.8c0.3,0.5,0.7,1.3,0.5,2.1
				c-0.1,0.4-0.3,0.7-0.5,1c-0.2,0.3-0.4,0.6-0.7,0.9c-0.2,0.3-0.5,0.5-0.6,0.7c-0.1,0.2-0.2,0.3-0.2,0.5l-1.8-0.8
				c0.2-0.4,0.6-0.8,0.9-1c0.3-0.2,0.6-0.4,0.9-0.5c0.2-0.1,0.5-0.3,0.7-0.5c0.2-0.2,0.4-0.4,0.5-0.6c0.3-0.4,0.2-0.9,0-1.5
				c-0.1-0.3-0.2-0.6-0.2-1C139.3,245.6,139.6,245.3,139.9,245.2z"/>
		</g>
		<g>
			<path class="st3" d="M105.8,275.7c-0.1-0.2-0.4-0.5-0.7-0.6c-0.3-0.2-0.6-0.3-0.9-0.3c-0.7-0.1-1.5,0.1-2.2,0.5
				c-0.3,0.2-0.7,0.5-1.2,0.7c-0.4,0.2-0.8,0.4-1.3,0.5c-0.5,0.1-1,0.1-1.4-0.1c-0.4-0.2-0.8-0.5-1-0.9c0.3,0.4,0.6,0.6,1,0.7
				c0.4,0.1,0.8,0,1.2-0.2c0.4-0.2,0.7-0.4,1.1-0.7c0.3-0.3,0.6-0.6,1-0.9c0.7-0.6,1.6-1.2,2.8-1.2c0.5,0,1.1,0,1.6,0.2
				c0.5,0.2,1,0.4,1.5,0.9L105.8,275.7z"/>
		</g>
		<g>
			<path class="st3" d="M113.9,267.5c0.1-0.3,0.2-0.8,0.2-1.2c0-0.4-0.1-0.8-0.2-1.2c-0.2-0.4-0.5-0.7-0.9-0.9
				c-0.4-0.2-0.9-0.3-1.4-0.4c0.5-0.1,1-0.2,1.6,0c0.5,0.1,1.1,0.4,1.5,0.8c0.4,0.4,0.7,1,0.9,1.5c0.2,0.6,0.3,1.1,0.3,1.8
				L113.9,267.5z"/>
		</g>
		<g>
			<path class="st3" d="M126.8,283.7c0,0-0.2,0.2-0.2,0.3c-0.1,0.2-0.1,0.3-0.2,0.5c-0.1,0.4-0.1,0.8-0.1,1.2c0,0.8,0.3,1.7,0.7,2.4
				c0.2,0.3,0.5,0.6,0.9,0.9c0.4,0.3,0.8,0.5,1.2,0.9c0.4,0.4,0.6,0.9,0.5,1.4c0,0.5-0.2,1-0.3,1.4c0.1-0.9,0.2-2-0.5-2.5
				c-0.7-0.4-1.8-0.7-2.5-1.6c-0.4-0.4-0.7-0.9-0.9-1.3c-0.2-0.5-0.4-0.9-0.5-1.5c-0.1-0.5-0.2-1.1-0.1-1.7c0-0.3,0.1-0.6,0.2-0.9
				c0.1-0.3,0.2-0.5,0.4-0.9L126.8,283.7z"/>
		</g>
		<g>
			<path class="st3" d="M132,276.7c0.6-0.1,1.1,0,1.6,0.1c0.5,0.1,0.9,0.3,1.3,0.6c0.8,0.6,1.3,1.3,1.7,2.1c0.4,0.8,0.5,1.6,0.8,2.2
				c0.1,0.3,0.3,0.7,0.6,0.9c0.1,0.1,0.3,0.2,0.5,0.2c0.2,0,0.3-0.2,0.4-0.4c-0.1,0.2-0.2,0.4-0.4,0.5c-0.2,0.1-0.5,0-0.6-0.1
				c-0.4-0.2-0.6-0.6-0.9-0.9c-0.5-0.7-0.8-1.4-1.2-2c-0.4-0.6-1-1-1.5-1.3c-0.3-0.1-0.6-0.2-0.9-0.2c-0.3,0-0.6,0-0.8,0.1
				L132,276.7z"/>
		</g>
		<g>
			<path class="st3" d="M122.2,261.4c0.2-0.5,0.3-1.2,0.2-1.8c-0.1-0.6-0.4-1-1-1.4l-1-0.6c-0.3-0.2-0.7-0.5-0.9-0.9
				c-0.3-0.8-0.3-1.6-0.3-2.3c0.2,0.7,0.3,1.5,0.7,2.1c0.4,0.5,1.2,0.6,1.9,0.9c0.3,0.1,0.8,0.3,1.2,0.6c0.4,0.3,0.6,0.8,0.8,1.2
				c0.4,0.9,0.4,1.8,0.3,2.7L122.2,261.4z"/>
		</g>
		<g>
			<path class="st3" d="M106.6,285.3c-0.1-0.1-0.5-0.1-0.7-0.1c-0.2,0-0.5,0.1-0.7,0.2c-0.4,0.2-0.8,0.7-1,1.3
				c-0.1,0.3-0.2,0.7-0.3,1c-0.1,0.4-0.3,0.7-0.5,1c-0.2,0.3-0.6,0.6-1,0.6c-0.4,0.1-0.8,0-1.1-0.1c0.3,0.1,0.7,0,1-0.1
				c0.3-0.1,0.5-0.4,0.6-0.7c0.1-0.3,0.2-0.6,0.2-0.9c0-0.3,0-0.6,0.1-1.1c0.1-0.8,0.4-1.6,1.1-2.3c0.3-0.3,0.8-0.6,1.2-0.7
				c0.5-0.1,0.8-0.2,1.4-0.2L106.6,285.3z"/>
		</g>
		<g>
			<path class="st3" d="M114.5,289.2c0,0-0.2,0.2-0.2,0.4c-0.1,0.2-0.1,0.4-0.1,0.6c-0.1,0.4,0,0.8,0.1,1.3c0.1,0.4,0.3,0.9,0.5,1.3
				c0.2,0.4,0.5,0.8,0.7,1.3c-0.4-0.3-0.8-0.6-1.1-1c-0.3-0.4-0.7-0.8-1-1.2c-0.3-0.5-0.5-1-0.7-1.5c-0.1-0.3-0.1-0.6-0.1-0.9
				c0-0.3,0-0.6,0.2-1.1L114.5,289.2z"/>
		</g>
		<g>
			<path class="st2" d="M140.2,262.1c-0.3,0.5-0.7,0.9-1.2,1.3c-0.5,0.3-1.1,0.6-1.6,0.7c-0.6,0.2-1.2,0.2-1.7,0.3
				c-0.6,0-1.1,0-1.8-0.1l-0.7-0.1l-0.1-0.7c-0.1-0.6-0.1-1.1,0-1.7c0.1-0.6,0.2-1.1,0.4-1.6c0.2-0.5,0.5-1,0.9-1.5
				c0.4-0.4,0.8-0.8,1.4-1c-0.2,0.5-0.4,1-0.5,1.4c-0.1,0.5-0.2,0.9-0.2,1.4c0,0.5,0,0.9,0,1.4c0,0.5,0,1,0.1,1.3l-0.8-0.8
				c0.4,0.1,1,0.1,1.5,0.2c0.5,0,1,0.1,1.5,0.1c0.5,0,1,0,1.5-0.1C139.2,262.4,139.7,262.3,140.2,262.1z"/>
		</g>
		<path class="st12" d="M132.7,268.9c-2.2,1.9-6.2,1.1-6.2,1.1s-0.5-3.8,1.6-5.7c2.2-1.9,6.2-1.1,6.2-1.1S134.9,267.1,132.7,268.9z"
			/>
		<path class="st12" d="M124.4,275.5c-2.2,1.9-6.2,1.1-6.2,1.1s-0.5-3.8,1.6-5.7c2.2-1.9,6.2-1.1,6.2-1.1S126.6,273.7,124.4,275.5z"
			/>
		<g>
			<path class="st2" d="M112,278.1c0.3-0.5,0.7-0.9,1.2-1.3c0.5-0.3,1.1-0.6,1.6-0.7c0.6-0.2,1.2-0.2,1.7-0.3c0.6,0,1.1,0,1.8,0.1
				l0.7,0.1l0.1,0.7c0.1,0.6,0.1,1.1,0,1.7c-0.1,0.6-0.2,1.1-0.4,1.6c-0.2,0.5-0.5,1-0.9,1.5c-0.4,0.4-0.8,0.8-1.4,1
				c0.2-0.5,0.4-1,0.5-1.4c0.1-0.5,0.2-0.9,0.2-1.4c0-0.5,0-0.9,0-1.4c0-0.5,0-1-0.1-1.3l0.8,0.8c-0.4-0.1-1-0.1-1.5-0.2
				c-0.5,0-1-0.1-1.5-0.1c-0.5,0-1,0-1.5,0.1C113.1,277.8,112.6,277.9,112,278.1z"/>
		</g>
		<path class="st3" d="M129.6,195.3c0,0-9.7,11.5-19.6,10.2s-16.3-14.9-16.3-14.9s9.7-11.5,19.6-10.2c8.1,1.1,13.4,9.1,15.3,12.5
			c0,0-13.1-5.2-21.1-1.3C117,190.4,128.9,195.1,129.6,195.3z"/>
	</g>
	<g class="st9">
		<path class="st3" d="M141.1,207.1c0,0-0.1-0.3-0.2-0.5c-0.1-0.2-0.2-0.5-0.3-0.7c-0.3-0.5-0.5-1-0.9-1.4c-0.3-0.5-0.7-0.9-1.1-1.4
			c-0.4-0.4-0.8-0.9-1.3-1.3c-1.8-1.6-3.9-3-6.3-4.1c-1.1-0.6-2.4-1-3.6-1.5c-1.2-0.4-2.5-0.8-3.7-1.2c-1.3-0.3-2.6-0.6-3.8-0.9
			l-3.9-0.7l4,0c1.3,0.1,2.7,0.2,4,0.3c1.3,0.2,2.7,0.4,4,0.6c1.3,0.3,2.7,0.5,4,1c2.6,0.8,5.2,1.9,7.6,3.4c0.6,0.4,1.2,0.8,1.8,1.3
			c0.5,0.5,1.1,0.9,1.6,1.5c0.5,0.5,1,1.1,1.5,1.7c0.2,0.3,0.5,0.6,0.7,1c0.2,0.4,0.4,0.7,0.6,1.3c0.4,1.3-0.3,2.7-1.6,3.1
			C142.9,209.1,141.5,208.4,141.1,207.1z"/>
	</g>
	<path class="st13" d="M148.8,198"/>
	<g class="st9">
		<path class="st3" d="M145,213c0.7-1.5,1.4-2.6,2.1-3.8c0.7-1.1,1.5-2.2,2.3-3.3c1.6-2.1,3.2-4.2,4.9-6.2c1.7-2,3.6-3.9,5.6-5.6
			c1-0.8,2.1-1.6,3.2-2.3c1.1-0.7,2.4-1.2,3.7-1.4c-2.4,1.1-4,3.1-5.4,5c-1.4,2-2.7,4.2-3.8,6.4c-1.1,2.2-2.1,4.5-3,6.8
			c-0.4,1.2-0.9,2.3-1.2,3.5c-0.4,1.1-0.7,2.4-0.8,3.2L145,213z"/>
	</g>
	<path class="st14" d="M192.5,175.5c-18.9,5.5-36.8,23-35.2,23.7c7.7-8.2,17.2-7.7,35.2-3.7c16.6,3.7,22.5-1.4,32-11
		c4.5-4.4,10.9-7.7,14-9C238.5,175.5,209.5,170.5,192.5,175.5z"/>
	<g class="st9">
		<g>
			<path class="st15" d="M151.6,193.5c-1.6-1.8-2.5-2.7-4.1-4.5c0.4-0.5,0.7-0.7,1.1-1.2c2.2-0.1,7,0,7.9,0.1c0,0,0,0,0,0
				c-0.6-0.6-1.2-1.4-1.8-2.3c-0.7-0.9-1-1.3-1.7-2.2c0.3-0.3,0.5-0.5,0.8-0.8c1.5,2.1,2.3,3.2,3.9,5.3c-0.4,0.4-0.6,0.5-1.1,0.9
				c-2-0.2-7.1-0.2-8-0.2c0,0,0,0,0,0c0.6,0.5,1.2,1.2,1.9,2.1c0.7,0.8,1.1,1.2,1.8,2C152.1,193,151.9,193.2,151.6,193.5z"/>
			<path class="st15" d="M159.2,184c0.1,1,0.1,1.5,0.2,2.6c-0.3,0.3-0.5,0.4-0.8,0.7c-0.4-3.1-0.5-4.7-0.7-8
				c0.4-0.4,0.7-0.5,1.1-0.9c2.8,1.3,4.2,2,6.9,3.6c-0.4,0.2-0.6,0.4-0.9,0.6c-0.9-0.5-1.3-0.7-2.2-1.2
				C161.3,182.4,160.6,182.9,159.2,184z M162.2,181c-1.9-1-2.9-1.4-3.4-1.7c0,0,0,0,0,0c0.1,0.6,0.2,2.1,0.4,4
				C160.4,182.4,161,181.9,162.2,181z"/>
			<path class="st15" d="M163.9,174.8c0.8,1.5,1.2,2.3,2.1,3.8c0.9,1.6,2.3,1.2,3.5,0.5c1.4-0.8,2.3-1.9,1.5-3.6
				c-0.8-1.6-1.1-2.4-1.9-4.1c0.4-0.2,0.6-0.4,1-0.6c0.7,1.6,1.1,2.5,1.8,4.1c1,2.2-0.3,3.6-2.1,4.7c-1.8,1.1-3.7,1.4-4.7-0.4
				c-0.8-1.5-1.3-2.3-2.1-3.8C163.3,175.2,163.5,175.1,163.9,174.8z"/>
			<path class="st15" d="M176.6,172.4c0.1,0.3,0.2,0.4,0.3,0.6c-1.4,0.7-2.1,1-3.5,1.8c-0.1-0.2-0.2-0.4-0.3-0.6
				C174.5,173.5,175.1,173.1,176.6,172.4z"/>
			<path class="st15" d="M185.8,169.7c-0.1,1.5-1,2.8-3.1,3.6c-2.8,1.1-4.8,0.1-5.6-1.9c-0.7-2,0.1-4.6,3.1-5.9
				c2.3-1,3.9-0.5,4.6,0.7c-0.4,0.2-0.6,0.2-1,0.4c-0.7-0.8-1.7-1.1-3.4-0.4c-2.4,1.1-2.8,3.1-2.2,4.7c0.5,1.5,2,2.7,4.4,1.8
				c1.5-0.6,2.1-1.5,2.2-2.6C185.2,169.9,185.4,169.8,185.8,169.7z"/>
			<path class="st15" d="M185.6,163.4c0.4-0.2,0.6-0.2,1.1-0.4c0.3,1.4,0.5,2.1,0.9,3.5c2.3-0.8,3.4-1.2,5.8-1.8
				c-0.3-1.5-0.4-2.2-0.7-3.6c0.4-0.1,0.7-0.2,1.1-0.3c0.6,3.4,0.9,5.1,1.5,8.6c-0.4,0.1-0.6,0.1-1,0.2c-0.3-1.6-0.5-2.5-0.8-4.1
				c-2.3,0.6-3.5,1-5.7,1.8c0.4,1.6,0.6,2.3,1,3.9c-0.4,0.1-0.6,0.2-1,0.3C186.9,168.2,186.5,166.6,185.6,163.4z"/>
			<path class="st15" d="M197.1,159.8c0.5,3.5,0.8,5.3,1.3,8.8c-0.4,0.1-0.6,0.1-1,0.2c-0.6-3.5-0.8-5.2-1.4-8.7
				C196.5,160,196.7,159.9,197.1,159.8z"/>
			<path class="st15" d="M200.5,168.2c-0.5-3.6-0.7-5.3-1.1-8.9c0.6-0.1,0.9-0.2,1.5-0.3c1.9,1.8,5.8,6.2,6.5,7.1c0,0,0,0,0,0
				c-0.2-1.3-0.2-2.7-0.3-4.2c-0.1-1.6-0.1-2.4-0.2-4c0.4-0.1,0.7-0.1,1.1-0.2c0.2,3.8,0.2,5.6,0.4,9.4c-0.5,0-0.8,0.1-1.3,0.1
				c-1.6-1.9-5.7-6.4-6.6-7.3c0,0,0,0,0,0c0.2,1.1,0.3,2.5,0.5,4.1c0.2,1.6,0.3,2.3,0.4,3.9C201.1,168.1,200.9,168.1,200.5,168.2z"
				/>
			<path class="st15" d="M211.7,163.8c-0.5,1.3-0.7,1.9-1.2,3.2c-0.4,0-0.6,0-1,0.1c1.3-3.9,2.1-5.8,3.7-9.8c0.6,0,0.8-0.1,1.4-0.1
				c1.6,3.8,2.4,5.7,3.7,9.7c-0.4,0-0.7,0-1.1,0c-0.5-1.3-0.7-1.9-1.2-3.2C214.3,163.6,213.4,163.6,211.7,163.8z M215.7,162.7
				c-1-2.7-1.6-4-1.9-4.7c0,0,0,0,0,0c-0.3,0.8-1,2.5-1.8,4.9C213.5,162.8,214.2,162.7,215.7,162.7z"/>
			<path class="st15" d="M222.7,162.8c0,0.4,0,0.5-0.1,0.9c-1.6-0.1-2.3-0.1-3.9-0.1c0-0.4,0-0.5,0-0.9
				C220.4,162.7,221.2,162.7,222.7,162.8z"/>
			<path class="st15" d="M224.8,156.9c1.5,0,2.3,0.1,3.9,0.2c3.1,0.2,4.9,2.5,4.3,5.6c-0.6,3.1-2.8,4.9-5.7,4.6
				c-1.4-0.2-2.1-0.2-3.5-0.3C224.1,163,224.3,160.9,224.8,156.9z M224.9,166.2c0.9,0.1,1.4,0.1,2.3,0.2c2.6,0.3,4.2-1.3,4.6-3.8
				c0.4-2.2-0.5-4.4-3.4-4.6c-1-0.1-1.5-0.1-2.5-0.2C225.4,161.2,225.2,162.8,224.9,166.2z"/>
			<path class="st15" d="M240.9,164.5c-2.1-0.5-3.2-0.7-5.4-1.1c-0.3,1.6-0.5,2.5-0.8,4.1c2.3,0.4,3.4,0.7,5.7,1.3
				c-0.2,0.4-0.2,0.6-0.4,0.9c-2.6-0.7-3.9-1-6.5-1.4c0.8-4.2,1.2-6.3,2-10.4c2.8,0.4,4.3,0.6,7.1,1.2c-0.1,0.4-0.2,0.6-0.3,1
				c-2.4-0.5-3.5-0.7-5.9-1.1c-0.3,1.4-0.4,2.1-0.7,3.5c2.2,0.4,3.3,0.6,5.4,1.1C241,163.9,241,164.1,240.9,164.5z"/>
		</g>
	</g>
</g>
<g id="图层_5">
	<circle class="st2" cx="116" cy="165.5" r="2.6"/>
	<g>
		<g>
			<path class="st2" d="M104.9,171.5l13.9-19.7l1.3,1l-13.9,19.7L104.9,171.5z M105.6,172l0.9-1.2l3.1,2.2l-0.9,1.2L105.6,172z
				 M118.6,153.6l0.9-1.2l3.1,2.2l-0.9,1.2L118.6,153.6z"/>
		</g>
	</g>
	<circle class="st2" cx="107.9" cy="159.8" r="2.1"/>
	<circle class="st2" cx="102.2" cy="156.6" r="1.4"/>
	<circle class="st2" cx="292.7" cy="268.8" r="2.6"/>
	<g>
		<g>
			<path class="st2" d="M286.9,278.6l0.9-1.3l3.2,2.2l-0.9,1.3L286.9,278.6z M289.4,280.3l13.7-19.8l1.4,0.9l-13.7,19.8L289.4,280.3
				z M299.8,260.1l0.9-1.3l3.2,2.2l-0.9,1.3L299.8,260.1z"/>
		</g>
	</g>
	<circle class="st2" cx="300.7" cy="274.4" r="2.1"/>
	<circle class="st2" cx="305.8" cy="278.7" r="1.4"/>
	<g>
		<path class="st2" d="M154.7,195.3c4.1-2.5,8.3-4.8,12.6-6.9c4.3-2.1,8.7-4,13.2-5.7c4.5-1.7,9.1-3.1,13.8-3.9
			c4.7-0.8,9.6-1.2,14.2-0.2c-4.7-0.8-9.5-0.2-14.1,0.9c-4.6,1.1-9.1,2.7-13.4,4.6c-4.3,1.9-8.6,4-12.7,6.3c-4.1,2.3-8.2,4.8-12,7.4
			l0,0c-0.7,0.5-1.6,0.3-2.1-0.4C153.7,196.7,153.9,195.8,154.7,195.3C154.6,195.3,154.6,195.3,154.7,195.3z"/>
	</g>
</g>
</svg>
